<svg viewBox="0 0 21 22.9" id="ic-calendar" xmlns="http://www.w3.org/2000/svg">
    <path d="M18.8 4.5v2.6H2.2V4.5zm0 15.9a.3.3 0 01-.1.2H2.3a.3.3 0 01-.1-.2V9.3h16.6zm0-18.2h-1.3V.5a.6.6 0 00-.6-.5h-1.1a.6.6 0 00-.6.5v1.7H5.8V.5c0-.3-.2-.5-.6-.5H4.1a.5.5 0 00-.5.5v1.7H2.2A2.2 2.2 0 000 4.5v15.9a2.3 2.3 0 002.2 2.4h16.6a2.3 2.3 0 002.2-2.4V4.5a2.2 2.2 0 00-2.2-2.3zM5.6 13.8h1.1a.6.6 0 00.6-.6v-1.1a.6.6 0 00-.6-.6H5.6a.6.6 0 00-.6.6v1.1a.6.6 0 00.6.6m4.5 0h1.1a.6.6 0 00.6-.6v-1.1a.6.6 0 00-.6-.6h-1.1a.6.6 0 00-.6.6v1.1a.6.6 0 00.6.6m4.5 0h1.1a.6.6 0 00.6-.6v-1.1a.6.6 0 00-.6-.6h-1.1a.6.6 0 00-.6.6v1.1a.6.6 0 00.6.6m-9 4.1h1.1a.6.6 0 00.6-.5v-1.2a.6.6 0 00-.6-.5H5.6a.6.6 0 00-.6.5v1.2a.6.6 0 00.6.5m4.5 0h1.1a.6.6 0 00.6-.5v-1.2a.6.6 0 00-.6-.5h-1.1a.6.6 0 00-.6.5v1.2a.6.6 0 00.6.5m4.5 0h1.1a.6.6 0 00.6-.5v-1.2a.6.6 0 00-.6-.5h-1.1a.6.6 0 00-.6.5v1.2a.6.6 0 00.6.5" fill-rule="evenodd">
    </path>
</svg>