<svg viewBox="0 0 21 21" id="ic-details" xmlns="http://www.w3.org/2000/svg">
    <path d="M2.3 18.7h16.4V2.3H2.3zM19.9 0A1.1 1.1 0 0121 1.1v18.8a1.1 1.1 0 01-1.1 1.1H1.1A1.1 1.1 0 010 19.9V1.1A1.1 1.1 0 011.1 0zm-5.5 6.7H4.7a.6.6 0 01-.6-.5V5.1a.6.6 0 01.6-.6h9.7a.6.6 0 01.6.6v1.1a.6.6 0 01-.6.5zm0 9.8H4.7a.6.6 0 01-.6-.6v-1.1a.6.6 0 01.6-.5h9.7a.6.6 0 01.6.5v1.1a.6.6 0 01-.6.6zm-9.7-4.9a.6.6 0 01-.6-.5V9.9a.6.6 0 01.6-.5h5.6a.6.6 0 01.6.5v1.2a.6.6 0 01-.6.5z" fill-rule="evenodd">
    </path>
</svg>