<svg viewBox="0 0 24 21" id="gift" xmlns="http://www.w3.org/2000/svg">
    <path d="M21.8 6h-1.3a4.1 4.1 0 00.5-1.9A4.2 4.2 0 0016.9 0c-2 0-3.2 1-4.9 3.2C10.4 1 9.2 0 7.2 0a4.1 4.1 0 00-4.1 4.1A4.1 4.1 0 003.6 6H2.2A2.2 2.2 0 000 8.3v6a.7.7 0 00.8.7h.7v3.5A2.5 2.5 0 004 21h16a2.5 2.5 0 002.5-2.5V15h.7a.7.7 0 00.8-.7v-6A2.2 2.2 0 0021.8 6zM7.2 6a1.9 1.9 0 01-1.9-1.9 1.9 1.9 0 011.9-1.8c1 0 1.8.3 4 3.6h-4zm5.7-.1c2.2-3.3 2.9-3.6 4-3.6a1.9 1.9 0 011.9 1.8A1.9 1.9 0 0116.9 6h-4zm.2 2.4h8.7v4.4h-8.7zm0 6.7h7.1v3.7h-7.1zM2.2 8.3h8.7v4.4H2.2zM3.6 15h7.3v3.7H3.6z" fill-rule="evenodd">
    </path>
</svg>