<svg xmlns="http://www.w3.org/2000/svg" viewBox="0 0 28 28">
    <path fill="currentColor" d="M24.77 28H3.23C1.45 28 0 26.55 0 24.77V3.23C0 1.45 1.45 0 3.23 0h21.54C26.55 0 28 1.45 28 3.23v21.54c0 1.78-1.45 3.23-3.23 3.23zM14 8.62c-2.97 0-5.38 2.4-5.38 5.38s2.4 5.38 5.38 5.38 5.38-2.4 5.38-5.38c0-2.97-2.4-5.38-5.38-5.38zm10.77-4.3c0-.6-.48-1.1-1.08-1.1h-3.26c-.6 0-1.08.5-1.08 1.1v3.22c0 .6.5 1.08 1.08 1.08h3.23c.6 0 1.07-.5 1.07-1.08V4.3zm0 7.53h-2.44c.18.68.28 1.4.28 2.15 0 4.76-3.82 8.62-8.6 8.62S5.4 18.76 5.4 14c0-.74.1-1.47.3-2.15H3.22V23.7c0 .6.48 1.07 1.08 1.07h19.4c.6 0 1.07-.48 1.07-1.08V11.82z" class="">
    </path>
</svg>