<svg xmlns="http://www.w3.org/2000/svg" viewBox="0 0 28 28">
    <path fill="currentColor" d="M26.88 6c-.95.43-1.97.7-3.04.84 1.1-.65 1.93-1.7 2.33-2.92-1.02.6-2.16 1.05-3.36 1.28-.9-1.03-2.3-1.67-3.8-1.67-2.9 0-5.3 2.37-5.3 5.3 0 .4.1.8.2 1.2C9.5 9.8 5.6 7.7 3 4.5c-.46.78-.7 1.7-.7 2.66 0 1.83.9 3.45 2.33 4.4a5.22 5.22 0 01-2.4-.67c0 2.53 1.83 4.7 4.24 5.2-.44.1-.9.2-1.4.2-.33 0-.66-.08-1-.1.7 2.1 2.64 3.6 4.95 3.62-1.8 1.4-4.1 2.26-6.56 2.26-.43 0-.85-.03-1.26-.08 2.34 1.5 5.12 2.36 8.1 2.36 9.72 0 15.04-8.05 15.04-15v-.7c1-.7 1.9-1.67 2.6-2.7z" class="">
    </path>
</svg>