<svg aria-hidden="true" focusable="false" data-prefix="fas" data-icon="credit-card" role="img" xmlns="http://www.w3.org/2000/svg" viewBox="0 0 29 28" aria-label="Free cancellation up to 24 hours before activity starts" class="svg-inline--fa fa-credit-card fa-w-17" data-v-681e7184="">
    <path fill="currentColor" d="M21.84 5.2q1.7 0 2.86 1.2t1.2 2.87v9.46q0 1.7-1.2 2.9t-2.86 1.16H6.94q-1.7 0-2.86-1.2t-1.2-2.9V9.3q0-1.7 1.2-2.86t2.86-1.2h14.9zm1.35 13.53v-5.4H5.6v5.4q0 .55.38.96t.96.34h14.9q.54 0 .96-.4t.4-.95zm0-8.14V9.22q0-.55-.4-.96t-1-.4H6.92q-.53 0-.94.4t-.4.96v1.32h17.6zm-5.46 6.8q-.65 0-.65-.7t.65-.7h2.73q.64 0 .64.66t-.65.7h-2.7z" data-v-681e7184="" class="">
    </path>
</svg>