<svg aria-hidden="true" focusable="false" data-prefix="fas" data-icon="live-guide" role="img" xmlns="http://www.w3.org/2000/svg" viewBox="0 0 32 28" aria-label="Live tour guide" class="svg-inline--fa fa-live-guide fa-w-19" data-v-681e7184="">
    <path fill="currentColor" d="M21.16 1c-.45 0-.9.45-.9.9v4.27c0 .45.46.86.92.86h1.52v2c0 .47.26.5.5.3l3.18-2.3h2.7c.46 0 .92-.4.92-.86V1.9c0-.45-.46-.9-.9-.9h-7.94zm-3.84 16.43c-.14-.06-.3-.1-.47-.15 1.9-1.86 2.75-3.7 2.75-5.88 0-2.87-2.33-5.2-5.2-5.2s-5.2 2.33-5.2 5.2c0 2.17.85 4.02 2.75 5.88l-.47.15-5.05 2.07C5.1 20 4 22.1 4 23.53v.87C4 25.83 5.17 27 6.6 27h15.6c1.43 0 2.6-1.17 2.6-2.6v-.87c0-1.43-1.1-3.53-2.44-4.03l-5.04-2.07z" data-v-681e7184="" class="">
    </path>
</svg>