<svg aria-hidden="true" focusable="false" data-prefix="fas" data-icon="voucher" role="img" xmlns="http://www.w3.org/2000/svg" viewBox="0 0 16 20" aria-label="Printed or mobile voucher accepted" class="svg-inline--fa fa-voucher fa-w-13" data-v-681e7184="">
    <path fill="currentColor" d="M14 2H2v16h2.533c.69-1.196 1.982-2 3.467-2 1.483 0 2.776.803 3.467 2H14V2zM8 18c-1.112 0-2 .895-2 2H1.994C.894 20 0 19.102 0 18.01V1.99C0 .89.895 0 1.994 0h12.012C15.106 0 16 .898 16 1.99v16.02c0 1.1-.895 1.99-1.994 1.99H10c0-1.112-.895-2-2-2z M8 8l3 4H5" data-v-681e7184="" class="">
    </path>
</svg>