<svg aria-hidden="true" focusable="false" data-prefix="fas" data-icon="skip-line" role="img" xmlns="http://www.w3.org/2000/svg" viewBox="0 0 32 28" aria-label="Skip the ticket line" class="svg-inline--fa fa-skip-line fa-w-19" data-v-681e7184="">
    <path fill="currentColor" d="M23.87 6.76c1.25 0 2.26-1.08 2.26-2.42s-1-2.4-2.26-2.4c-1.25 0-2.27 1.07-2.27 2.4s1.02 2.42 2.27 2.42zm5.16 1.4c-.52-.36-1.22-.22-1.57.34l-1.5 2.4-2.42-2.58c-.05-.05-.1-.07-.15-.1-.1-.05-.1-.1-.2-.13l-2.3-1.3h-.1c-.1-.1-.2-.1-.2-.1l-.2-.1h-4.5c-.4 0-.8.2-1 .5l-2.3 3.6c-.4.5-.2 1.3.3 1.7.2.1.4.2.6.2.32 0 .7-.2.9-.6l2-3.08h2.1l-2.6 5.5-.04.16-.05.17-.9 4.8-3.4-.9c-.6-.18-1.2.2-1.4.86-.2.64.2 1.3.8 1.46l4.5 1.2.3.03c.2 0 .4-.05.6-.17.2-.2.4-.48.5-.8l.9-4.4.7.4 2.7 2.84-1.9 4.06c-.3.6-.05 1.3.5 1.6.17.1.35.13.5.13.4 0 .8-.27 1-.7l2.3-4.83c.2-.48.13-1.05-.2-1.4l-2.84-3L22.9 11l2.3 2.47c.2.3.5.4.8.4h.1c.35 0 .66-.2.85-.5l2.24-3.7c.3-.5.2-1.3-.3-1.6zM10.96 6.03h-6.3c-.55 0-1 .45-1 1s.45 1 1 1h6.3c.56 0 1-.44 1-1s-.44-1-1-1zM9.7 10.36H3.4c-.55 0-1 .45-1 1s.45 1.02 1 1.02h6.3c.56 0 1-.46 1-1s-.44-1.02-1-1.02z" data-v-681e7184="" class="">
    </path>
</svg>