<svg aria-hidden="true" focusable="false" data-prefix="fas" data-icon="disabled" role="img" xmlns="http://www.w3.org/2000/svg" viewBox="0 0 24 28" aria-label="Wheelchair accessible" class="svg-inline--fa fa-disabled fa-w-14" data-v-681e7184="">
    <path fill="currentColor" d="M9.08 2.94c1 0 1.8.8 1.8 1.77s-.8 1.78-1.8 1.78-1.8-.8-1.8-1.76.8-1.76 1.8-1.76zM22 25.24l-1.6-7.8v-.06c-.02-.75-.65-1.35-1.4-1.34h-.06l-6.7.12-.46-5.95c-.06-.73-.97-1.32-2.22-1.32-1.1 0-2.16.78-2.1 1.53L8 18.15c.03.46.3.85.66 1.07l.08.06c.2.12.44.2.7.18l8.42-.12 1.45 6.5c.18.74.9 1.2 1.66 1.04.74-.16 1.2-.88 1.05-1.6zm-7.22-4.78a5.44 5.44 0 01-5.3 4.2c-3 0-5.43-2.44-5.43-5.44 0-1.9.98-3.6 2.56-4.6l-1.27-2.05c-2.2 1.4-3.68 3.85-3.68 6.66 0 4.33 3.5 7.84 7.84 7.84 3.72 0 6.83-2.6 7.64-6.07l-2.35-.54z" data-v-681e7184="" class="">
    </path>
</svg>