<svg xmlns="http://www.w3.org/2000/svg" viewBox="0 0 28 28">
    <path fill="currentColor" d="M21.8 14.1l2.52-6.7c.26-.66-.12-1.2-.84-1.2H8.8l-.32-1.6C8.35 4 7.82 3.57 7.2 3.57H4.9c-.73 0-1.3.57-1.3 1.3s.57 1.3 1.3 1.3h1.25l1.72 7.95-2.57 5.8c-.18.4-.14.86.1 1.23s.65.6 1.1.6h1c0 1.46 1.16 2.63 2.6 2.63 1.44 0 2.6-1.16 2.6-2.6l3.9-.03c0 1.47 1.17 2.64 2.6 2.64 1.44 0 2.6-1.18 2.6-2.6l.3-.05c.72 0 1.3-.58 1.3-1.3s-.58-1.3-1.3-1.3H8.5l1.7-3.87h9.82c.72 0 1.5-.56 1.76-1.2z" class="">
    </path>
</svg>