<svg xmlns="http://www.w3.org/2000/svg" viewBox="0 0 28 28" class="icon svg-inline--fa fa-help fa-w-16">
    <path fill="currentColor" d="M2 14q0-3.27 1.6-6.02T8 3.6 14 2t6.02 1.6T24.4 8t1.6 6-1.6 6.02T20 24.4 14 26t-6.02-1.6T3.6 20 2 14zm6.52-4.67q-.24.37.12.65l2.06 1.57q.1.1.3.1.25 0 .4-.2.82-1.06 1.34-1.43.53-.38 1.34-.38.75 0 1.34.4t.58.93q0 .6-.3.95t-1.07.7q-1 .44-1.8 1.36T12 15.94v.56q0 .22.14.36t.36.14h3q.22 0 .36-.14t.14-.36q0-.3.34-.77t.85-.78q.5-.28.74-.44t.7-.52.7-.75.45-.93.2-1.3q0-1.37-.87-2.55t-2.17-1.8T14.32 6q-3.8 0-5.8 3.33zM12 21.5q0 .22.14.36t.36.14h3q.22 0 .36-.14t.14-.36v-3q0-.22-.14-.36T15.5 18h-3q-.22 0-.36.14t-.14.36v3z" class="">
    </path>
</svg>